<svg width="9" height="14" viewBox="0 0 9 14" fill="none" xmlns="http://www.w3.org/2000/svg">
<path d="M1.20998 0.290002C1.11625 0.382965 1.04186 0.493565 0.991091 0.615424C0.940323 0.737284 0.914185 0.86799 0.914185 1C0.914185 1.13201 0.940323 1.26272 0.991091 1.38458C1.04186 1.50644 1.11625 1.61704 1.20998 1.71L5.78998 6.29C5.88371 6.38296 5.95811 6.49357 6.00887 6.61542C6.05964 6.73728 6.08578 6.86799 6.08578 7C6.08578 7.13201 6.05964 7.26272 6.00887 7.38458C5.95811 7.50644 5.88371 7.61704 5.78998 7.71L1.20998 12.29C1.11625 12.383 1.04186 12.4936 0.991091 12.6154C0.940323 12.7373 0.914185 12.868 0.914185 13C0.914185 13.132 0.940323 13.2627 0.991091 13.3846C1.04186 13.5064 1.11625 13.617 1.20998 13.71C1.39735 13.8963 1.6508 14.0008 1.91498 14.0008C2.17917 14.0008 2.43262 13.8963 2.61998 13.71L7.20998 9.12C7.77178 8.5575 8.08734 7.795 8.08734 7C8.08734 6.205 7.77178 5.4425 7.20998 4.88L2.61998 0.290002C2.43262 0.103751 2.17917 -0.000792503 1.91498 -0.000792503C1.6508 -0.000792503 1.39735 0.103751 1.20998 0.290002Z" fill="white"/>
</svg>
