<svg width="176" height="28" viewBox="0 0 176 28" fill="none" xmlns="http://www.w3.org/2000/svg">
<path d="M0.465909 22V1.63636H7.58523C9.00379 1.63636 10.1738 1.88163 11.0952 2.37216C12.0166 2.85606 12.7027 3.509 13.1534 4.33097C13.6042 5.14631 13.8295 6.05114 13.8295 7.04545C13.8295 7.92045 13.6738 8.64299 13.3622 9.21307C13.0573 9.78314 12.6529 10.2339 12.1491 10.5653C11.652 10.8968 11.1117 11.142 10.5284 11.3011V11.5C11.1515 11.5398 11.7779 11.7585 12.4077 12.1562C13.0374 12.554 13.5644 13.1241 13.9886 13.8665C14.4129 14.6089 14.625 15.517 14.625 16.5909C14.625 17.6117 14.393 18.5298 13.929 19.3452C13.465 20.1605 12.7325 20.8068 11.7315 21.2841C10.7306 21.7614 9.42803 22 7.82386 22H0.465909ZM2.93182 19.8125H7.82386C9.43466 19.8125 10.5781 19.5009 11.2543 18.8778C11.937 18.2481 12.2784 17.4858 12.2784 16.5909C12.2784 15.9015 12.1027 15.2652 11.7514 14.6818C11.4001 14.0919 10.8996 13.6212 10.25 13.2699C9.60038 12.9119 8.83144 12.733 7.94318 12.733H2.93182V19.8125ZM2.93182 10.5852H7.50568C8.24811 10.5852 8.91761 10.4394 9.5142 10.1477C10.1174 9.85606 10.5947 9.44508 10.946 8.91477C11.304 8.38447 11.483 7.76136 11.483 7.04545C11.483 6.15057 11.1714 5.39157 10.5483 4.76847C9.92519 4.13873 8.9375 3.82386 7.58523 3.82386H2.93182V10.5852ZM22.853 22.358C21.8852 22.358 21.0069 22.1757 20.218 21.8111C19.4292 21.4399 18.8028 20.9062 18.3388 20.2102C17.8748 19.5076 17.6428 18.6591 17.6428 17.6648C17.6428 16.7898 17.8151 16.0805 18.1598 15.5369C18.5045 14.9867 18.9652 14.5559 19.5419 14.2443C20.1186 13.9328 20.755 13.7008 21.451 13.5483C22.1536 13.3892 22.8596 13.2633 23.5689 13.1705C24.4969 13.0511 25.2493 12.9616 25.826 12.902C26.4093 12.8357 26.8336 12.7263 27.0987 12.5739C27.3705 12.4214 27.5064 12.1562 27.5064 11.7784V11.6989C27.5064 10.7178 27.2379 9.95549 26.701 9.41193C26.1707 8.86837 25.3653 8.59659 24.2848 8.59659C23.1645 8.59659 22.2862 8.84186 21.6499 9.33239C21.0135 9.82292 20.5661 10.3466 20.3075 10.9034L18.0803 10.108C18.478 9.17992 19.0083 8.45739 19.6712 7.94034C20.3407 7.41667 21.0698 7.05208 21.8587 6.84659C22.6541 6.63447 23.4363 6.52841 24.2053 6.52841C24.6958 6.52841 25.2592 6.58807 25.8956 6.70739C26.5386 6.82007 27.1584 7.0554 27.755 7.41335C28.3582 7.77131 28.8587 8.31155 29.2564 9.03409C29.6541 9.75663 29.853 10.7244 29.853 11.9375V22H27.5064V19.9318H27.3871C27.228 20.2633 26.9628 20.6179 26.5916 20.9957C26.2204 21.3736 25.7266 21.6951 25.1101 21.9602C24.4936 22.2254 23.7412 22.358 22.853 22.358ZM23.2109 20.25C24.139 20.25 24.9212 20.0677 25.5575 19.7031C26.2005 19.3385 26.6844 18.8679 27.0092 18.2912C27.3407 17.7145 27.5064 17.108 27.5064 16.4716V14.3239C27.407 14.4432 27.1882 14.5526 26.8501 14.652C26.5187 14.7448 26.1342 14.8277 25.6967 14.9006C25.2659 14.9669 24.8449 15.0265 24.4339 15.0795C24.0296 15.1259 23.7015 15.1657 23.4496 15.1989C22.8397 15.2784 22.2696 15.4077 21.7393 15.5866C21.2157 15.759 20.7914 16.0208 20.4666 16.3722C20.1484 16.7169 19.9893 17.1875 19.9893 17.7841C19.9893 18.5994 20.291 19.2159 20.8942 19.6335C21.504 20.0445 22.2763 20.25 23.2109 20.25ZM34.4542 22V1.63636H36.8008V9.15341H36.9996C37.172 8.88826 37.4106 8.55019 37.7156 8.1392C38.0271 7.72159 38.4712 7.35038 39.0479 7.02557C39.6313 6.69413 40.4201 6.52841 41.4144 6.52841C42.7004 6.52841 43.8339 6.84991 44.815 7.4929C45.796 8.13589 46.5617 9.04735 47.1119 10.2273C47.6621 11.4072 47.9371 12.7992 47.9371 14.4034C47.9371 16.0208 47.6621 17.4228 47.1119 18.6094C46.5617 19.7893 45.7994 20.7041 44.8249 21.3537C43.8505 21.9967 42.7269 22.3182 41.4542 22.3182C40.4731 22.3182 39.6876 22.1558 39.0977 21.831C38.5077 21.4995 38.0536 21.125 37.7354 20.7074C37.4173 20.2831 37.172 19.9318 36.9996 19.6534H36.7212V22H34.4542ZM36.761 14.3636C36.761 15.517 36.93 16.5346 37.2681 17.4162C37.6062 18.2912 38.1 18.9773 38.7496 19.4744C39.3993 19.965 40.1947 20.2102 41.136 20.2102C42.1171 20.2102 42.9357 19.9517 43.592 19.4347C44.2549 18.911 44.752 18.2083 45.0835 17.3267C45.4215 16.4384 45.5906 15.4508 45.5906 14.3636C45.5906 13.2898 45.4248 12.322 45.0934 11.4602C44.7686 10.5919 44.2747 9.90578 43.6119 9.40199C42.9556 8.89157 42.1303 8.63636 41.136 8.63636C40.1815 8.63636 39.3794 8.87831 38.7298 9.36222C38.0801 9.83949 37.5896 10.509 37.2582 11.3707C36.9267 12.2259 36.761 13.2235 36.761 14.3636ZM52.4911 27.7273C52.0934 27.7273 51.7388 27.6941 51.4272 27.6278C51.1156 27.5682 50.9002 27.5085 50.7809 27.4489L51.3775 25.3807C51.9476 25.5265 52.4513 25.5795 52.8888 25.5398C53.3263 25.5 53.7141 25.3045 54.0522 24.9531C54.3969 24.6084 54.7118 24.0483 54.9968 23.2727L55.4343 22.0795L49.7866 6.72727H52.332L56.5479 18.8977H56.707L60.9229 6.72727H63.4684L56.9854 24.2273C56.6938 25.0161 56.3325 25.669 55.9016 26.1861C55.4708 26.7098 54.9703 27.0975 54.4002 27.3494C53.8368 27.6013 53.2004 27.7273 52.4911 27.7273ZM83.2702 8H80.8043C80.6585 7.29072 80.4033 6.66761 80.0387 6.13068C79.6808 5.59375 79.2433 5.14299 78.7262 4.77841C78.2158 4.4072 77.649 4.12879 77.0259 3.94318C76.4028 3.75758 75.7532 3.66477 75.0771 3.66477C73.8441 3.66477 72.7272 3.97633 71.7262 4.59943C70.7319 5.22254 69.9397 6.14062 69.3498 7.35369C68.7665 8.56676 68.4748 10.0549 68.4748 11.8182C68.4748 13.5814 68.7665 15.0696 69.3498 16.2827C69.9397 17.4957 70.7319 18.4138 71.7262 19.0369C72.7272 19.66 73.8441 19.9716 75.0771 19.9716C75.7532 19.9716 76.4028 19.8788 77.0259 19.6932C77.649 19.5076 78.2158 19.2325 78.7262 18.8679C79.2433 18.4967 79.6808 18.0426 80.0387 17.5057C80.4033 16.9621 80.6585 16.339 80.8043 15.6364H83.2702C83.0846 16.6771 82.7466 17.6084 82.256 18.4304C81.7655 19.2524 81.1557 19.9517 80.4265 20.5284C79.6973 21.0985 78.8787 21.5327 77.9705 21.831C77.069 22.1293 76.1045 22.2784 75.0771 22.2784C73.3403 22.2784 71.7958 21.8542 70.4435 21.0057C69.0913 20.1572 68.0273 18.9508 67.2518 17.3864C66.4762 15.822 66.0884 13.9659 66.0884 11.8182C66.0884 9.67045 66.4762 7.81439 67.2518 6.25C68.0273 4.68561 69.0913 3.47917 70.4435 2.63068C71.7958 1.7822 73.3403 1.35795 75.0771 1.35795C76.1045 1.35795 77.069 1.5071 77.9705 1.8054C78.8787 2.10369 79.6973 2.54119 80.4265 3.1179C81.1557 3.68797 81.7655 4.384 82.256 5.20597C82.7466 6.02131 83.0846 6.95265 83.2702 8ZM91.4311 22.358C90.4633 22.358 89.585 22.1757 88.7962 21.8111C88.0073 21.4399 87.3809 20.9062 86.9169 20.2102C86.4529 19.5076 86.2209 18.6591 86.2209 17.6648C86.2209 16.7898 86.3932 16.0805 86.7379 15.5369C87.0826 14.9867 87.5433 14.5559 88.12 14.2443C88.6967 13.9328 89.3331 13.7008 90.0291 13.5483C90.7318 13.3892 91.4377 13.2633 92.147 13.1705C93.075 13.0511 93.8274 12.9616 94.4041 12.902C94.9875 12.8357 95.4117 12.7263 95.6768 12.5739C95.9486 12.4214 96.0845 12.1562 96.0845 11.7784V11.6989C96.0845 10.7178 95.8161 9.95549 95.2791 9.41193C94.7488 8.86837 93.9434 8.59659 92.8629 8.59659C91.7427 8.59659 90.8643 8.84186 90.228 9.33239C89.5916 9.82292 89.1442 10.3466 88.8857 10.9034L86.6584 10.108C87.0561 9.17992 87.5864 8.45739 88.2493 7.94034C88.9188 7.41667 89.648 7.05208 90.4368 6.84659C91.2322 6.63447 92.0144 6.52841 92.7834 6.52841C93.2739 6.52841 93.8374 6.58807 94.4737 6.70739C95.1167 6.82007 95.7365 7.0554 96.3331 7.41335C96.9363 7.77131 97.4368 8.31155 97.8345 9.03409C98.2322 9.75663 98.4311 10.7244 98.4311 11.9375V22H96.0845V19.9318H95.9652C95.8061 20.2633 95.541 20.6179 95.1697 20.9957C94.7985 21.3736 94.3047 21.6951 93.6882 21.9602C93.0717 22.2254 92.3194 22.358 91.4311 22.358ZM91.7891 20.25C92.7171 20.25 93.4993 20.0677 94.1357 19.7031C94.7786 19.3385 95.2625 18.8679 95.5874 18.2912C95.9188 17.7145 96.0845 17.108 96.0845 16.4716V14.3239C95.9851 14.4432 95.7663 14.5526 95.4283 14.652C95.0968 14.7448 94.7124 14.8277 94.2749 14.9006C93.844 14.9669 93.4231 15.0265 93.0121 15.0795C92.6077 15.1259 92.2796 15.1657 92.0277 15.1989C91.4179 15.2784 90.8478 15.4077 90.3175 15.5866C89.7938 15.759 89.3696 16.0208 89.0447 16.3722C88.7266 16.7169 88.5675 17.1875 88.5675 17.7841C88.5675 18.5994 88.8691 19.2159 89.4723 19.6335C90.0821 20.0445 90.8544 20.25 91.7891 20.25ZM109.356 6.72727V8.71591H101.441V6.72727H109.356ZM103.748 3.06818H106.095V17.625C106.095 18.2879 106.191 18.785 106.383 19.1165C106.582 19.4413 106.834 19.66 107.139 19.7727C107.45 19.8788 107.779 19.9318 108.123 19.9318C108.382 19.9318 108.594 19.9186 108.76 19.892C108.925 19.8589 109.058 19.8324 109.157 19.8125L109.635 21.9205C109.475 21.9801 109.253 22.0398 108.968 22.0994C108.683 22.1657 108.322 22.1989 107.885 22.1989C107.222 22.1989 106.572 22.0563 105.936 21.7713C105.306 21.4863 104.782 21.0521 104.365 20.4688C103.954 19.8854 103.748 19.1496 103.748 18.2614V3.06818ZM116.346 22L111.693 6.72727H114.159L117.46 18.4205H117.619L120.88 6.72727H123.386L126.608 18.3807H126.767L130.068 6.72727H132.534L127.88 22H125.574L122.233 10.267H121.994L118.653 22H116.346ZM135.636 22V6.72727H137.983V22H135.636ZM136.829 4.18182C136.372 4.18182 135.977 4.02604 135.646 3.71449C135.321 3.40294 135.159 3.02841 135.159 2.59091C135.159 2.15341 135.321 1.77888 135.646 1.46733C135.977 1.15578 136.372 1 136.829 1C137.287 1 137.678 1.15578 138.002 1.46733C138.334 1.77888 138.5 2.15341 138.5 2.59091C138.5 3.02841 138.334 3.40294 138.002 3.71449C137.678 4.02604 137.287 4.18182 136.829 4.18182ZM149.082 6.72727V8.71591H140.849V6.72727H149.082ZM143.315 22V4.61932C143.315 3.74432 143.52 3.01515 143.931 2.43182C144.342 1.84848 144.876 1.41098 145.532 1.11932C146.188 0.82765 146.881 0.681817 147.61 0.681817C148.187 0.681817 148.657 0.728219 149.022 0.821022C149.387 0.913825 149.658 0.999999 149.837 1.07954L149.161 3.10795C149.042 3.06818 148.876 3.01847 148.664 2.95881C148.459 2.89915 148.187 2.86932 147.849 2.86932C147.073 2.86932 146.513 3.06487 146.168 3.45597C145.83 3.84706 145.661 4.42045 145.661 5.17614V22H143.315ZM161.757 1.63636L167.007 10.108H167.166L172.416 1.63636H175.319L168.916 11.8182L175.319 22H172.416L167.166 13.6875H167.007L161.757 22H158.853L165.416 11.8182L158.853 1.63636H161.757Z" fill="#2471FF"/>
</svg>
