<svg width="17" height="14" viewBox="0 0 17 14" fill="none" xmlns="http://www.w3.org/2000/svg">
<path d="M5.52494 0.939116L1.93894 4.52512C1.30257 5.19198 0.94751 6.07834 0.94751 7.00012C0.94751 7.9219 1.30257 8.80826 1.93894 9.47512L5.52494 13.0611C5.80633 13.3424 6.18794 13.5003 6.58579 13.5002C6.98365 13.5002 7.36518 13.342 7.64644 13.0606C7.9277 12.7792 8.08566 12.3976 8.08557 11.9998C8.08547 11.6019 7.92734 11.2204 7.64594 10.9391L5.20694 8.50012H14.9999C15.3978 8.50012 15.7793 8.34208 16.0606 8.06078C16.3419 7.77947 16.4999 7.39794 16.4999 7.00012C16.4999 6.60229 16.3419 6.22076 16.0606 5.93946C15.7793 5.65815 15.3978 5.50012 14.9999 5.50012H5.20694L7.64594 3.06112C7.78527 2.92185 7.89581 2.7565 7.97124 2.57452C8.04667 2.39253 8.08552 2.19747 8.08557 2.00047C8.08561 1.80347 8.04686 1.60839 7.97151 1.42637C7.89617 1.24435 7.78571 1.07895 7.64644 0.939618C7.50717 0.800285 7.34183 0.689747 7.15984 0.614316C6.97786 0.538885 6.78279 0.500036 6.58579 0.49999C6.38879 0.499943 6.19372 0.538699 6.01169 0.614045C5.82967 0.689391 5.66427 0.79985 5.52494 0.939116Z" fill="white"/>
</svg>
