<svg width="18" height="19" viewBox="0 0 18 19" fill="none" xmlns="http://www.w3.org/2000/svg">
<g clip-path="url(#clip0_305_31989)">
<path d="M9.75 6.5H2.25C1.0095 6.5 0 7.5095 0 8.75V18.5H12V8.75C12 7.5095 10.9905 6.5 9.75 6.5ZM10.5 17H1.5V8.75C1.5 8.33675 1.836 8 2.25 8H9.75C10.164 8 10.5 8.33675 10.5 8.75V17ZM18 8.75H16.5C16.5 5.0285 13.4722 2 9.75 2V0.5C14.2987 0.5 18 4.20125 18 8.75ZM15 8.75H13.5C13.5 6.68225 11.8177 5 9.75 5V3.5C12.6442 3.5 15 5.855 15 8.75ZM4.5 10.25C4.5 10.664 4.164 11 3.75 11C3.336 11 3 10.664 3 10.25C3 9.836 3.336 9.5 3.75 9.5C4.164 9.5 4.5 9.836 4.5 10.25Z" fill="white"/>
</g>
<defs>
<clipPath id="clip0_305_31989">
<rect width="18" height="18" fill="white" transform="translate(0 0.5)"/>
</clipPath>
</defs>
</svg>
