<svg width="18" height="19" viewBox="0 0 18 19" fill="none" xmlns="http://www.w3.org/2000/svg">
<g clip-path="url(#clip0_271_3350)">
<path d="M14.25 0.5H10.5C10.3011 0.5 10.1103 0.579018 9.96967 0.71967C9.82902 0.860322 9.75 1.05109 9.75 1.25C9.75 1.44891 9.82902 1.63968 9.96967 1.78033C10.1103 1.92098 10.3011 2 10.5 2H14.25C14.5841 2.00129 14.9136 2.07822 15.2138 2.225L0.21975 17.2198C0.148117 17.2889 0.0909806 17.3717 0.0516738 17.4632C0.012367 17.5547 -0.00832263 17.6531 -0.00918799 17.7527C-0.0100534 17.8523 0.00892293 17.951 0.0466336 18.0432C0.0843443 18.1354 0.140034 18.2191 0.210454 18.2895C0.280873 18.36 0.364612 18.4157 0.456784 18.4534C0.548957 18.4911 0.647716 18.5101 0.747301 18.5092C0.846885 18.5083 0.9453 18.4876 1.0368 18.4483C1.12831 18.409 1.21106 18.3519 1.28025 18.2803L16.275 3.28625C16.4218 3.5864 16.4987 3.91589 16.5 4.25V8C16.5 8.19891 16.579 8.38968 16.7197 8.53033C16.8603 8.67098 17.0511 8.75 17.25 8.75C17.4489 8.75 17.6397 8.67098 17.7803 8.53033C17.921 8.38968 18 8.19891 18 8V4.25C17.9988 3.2558 17.6033 2.30267 16.9003 1.59967C16.1973 0.896662 15.2442 0.501191 14.25 0.5Z" fill="white"/>
<path d="M4.5 8C5.09334 8 5.67336 7.82405 6.16671 7.49441C6.66006 7.16477 7.04458 6.69623 7.27164 6.14805C7.4987 5.59987 7.55811 4.99667 7.44236 4.41473C7.3266 3.83279 7.04088 3.29824 6.62132 2.87868C6.20176 2.45912 5.66721 2.1734 5.08527 2.05765C4.50333 1.94189 3.90013 2.0013 3.35195 2.22836C2.80377 2.45543 2.33524 2.83994 2.00559 3.33329C1.67595 3.82664 1.5 4.40666 1.5 5C1.5 5.79565 1.81607 6.55871 2.37868 7.12132C2.94129 7.68393 3.70435 8 4.5 8ZM4.5 3.5C4.79667 3.5 5.08668 3.58797 5.33336 3.7528C5.58003 3.91762 5.77229 4.15189 5.88582 4.42598C5.99935 4.70007 6.02906 5.00167 5.97118 5.29264C5.9133 5.58361 5.77044 5.85088 5.56066 6.06066C5.35088 6.27044 5.08361 6.4133 4.79264 6.47118C4.50166 6.52906 4.20006 6.49935 3.92597 6.38582C3.65189 6.27229 3.41762 6.08003 3.2528 5.83336C3.08797 5.58668 3 5.29667 3 5C3 4.60218 3.15804 4.22065 3.43934 3.93934C3.72064 3.65804 4.10218 3.5 4.5 3.5Z" fill="white"/>
<path d="M13.5 11C12.9067 11 12.3266 11.1759 11.8333 11.5056C11.3399 11.8352 10.9554 12.3038 10.7284 12.852C10.5013 13.4001 10.4419 14.0033 10.5576 14.5853C10.6734 15.1672 10.9591 15.7018 11.3787 16.1213C11.7982 16.5409 12.3328 16.8266 12.9147 16.9424C13.4967 17.0581 14.0999 16.9987 14.6481 16.7716C15.1962 16.5446 15.6648 16.1601 15.9944 15.6667C16.3241 15.1734 16.5 14.5933 16.5 14C16.5 13.2044 16.1839 12.4413 15.6213 11.8787C15.0587 11.3161 14.2957 11 13.5 11ZM13.5 15.5C13.2033 15.5 12.9133 15.412 12.6666 15.2472C12.42 15.0824 12.2277 14.8481 12.1142 14.574C12.0007 14.2999 11.9709 13.9983 12.0288 13.7074C12.0867 13.4164 12.2296 13.1491 12.4393 12.9393C12.6491 12.7296 12.9164 12.5867 13.2074 12.5288C13.4983 12.4709 13.7999 12.5006 14.074 12.6142C14.3481 12.7277 14.5824 12.92 14.7472 13.1666C14.912 13.4133 15 13.7033 15 14C15 14.3978 14.842 14.7794 14.5607 15.0607C14.2794 15.342 13.8978 15.5 13.5 15.5Z" fill="white"/>
</g>
<defs>
<clipPath id="clip0_271_3350">
<rect width="18" height="18" fill="white" transform="translate(0 0.5)"/>
</clipPath>
</defs>
</svg>
