<svg width="18" height="19" viewBox="0 0 18 19" fill="none" xmlns="http://www.w3.org/2000/svg">
<g clip-path="url(#clip0_305_31998)">
<path d="M9 0.5C4.03725 0.5 0 4.53725 0 9.5C0 14.4628 4.03725 18.5 9 18.5C13.9628 18.5 18 14.4628 18 9.5C18 4.53725 13.9628 0.5 9 0.5ZM9 17C4.8645 17 1.5 13.6355 1.5 9.5C1.5 5.3645 4.8645 2 9 2C13.1355 2 16.5 5.3645 16.5 9.5C16.5 13.6355 13.1355 17 9 17ZM12 11C12 12.2405 10.9905 13.25 9.75 13.25V14C9.75 14.4148 9.41475 14.75 9 14.75C8.58525 14.75 8.25 14.4148 8.25 14V13.25H8.049C7.24875 13.25 6.50175 12.8195 6.1005 12.1258C5.89275 11.7665 6.01575 11.3083 6.3735 11.1012C6.73275 10.892 7.19175 11.0165 7.398 11.3742C7.53225 11.6067 7.78125 11.75 8.04825 11.75H9.74925C10.1632 11.75 10.4992 11.414 10.4992 11C10.4992 10.7165 10.296 10.4765 10.0162 10.43L7.7355 10.0497C6.729 9.8825 5.99925 9.02 5.99925 8C5.99925 6.7595 7.00875 5.75 8.24925 5.75V5C8.24925 4.586 8.5845 4.25 8.99925 4.25C9.414 4.25 9.74925 4.586 9.74925 5V5.75H9.95025C10.7505 5.75 11.4975 6.18125 11.8988 6.875C12.1065 7.2335 11.9835 7.69175 11.6258 7.8995C11.2657 8.10725 10.8075 7.98425 10.6012 7.62575C10.467 7.394 10.218 7.25075 9.951 7.25075H8.25C7.836 7.25075 7.5 7.5875 7.5 8.00075C7.5 8.28425 7.70325 8.52425 7.983 8.57075L10.2638 8.951C11.2703 9.11825 12 9.98075 12 11.0008V11Z" fill="white"/>
</g>
<defs>
<clipPath id="clip0_305_31998">
<rect width="18" height="18" fill="white" transform="translate(0 0.5)"/>
</clipPath>
</defs>
</svg>
