<svg width="15" height="14" viewBox="0 0 15 14" fill="none" xmlns="http://www.w3.org/2000/svg">
<g clip-path="url(#clip0_277_16222)">
<path d="M13.8309 0.66964C13.4343 0.273671 12.8968 0.0512695 12.3364 0.0512695C11.776 0.0512695 11.2385 0.273671 10.8419 0.66964L1.35459 10.157C1.08291 10.4271 0.867487 10.7485 0.720799 11.1024C0.574112 11.4564 0.499068 11.8359 0.500009 12.2191V13.4166C0.500009 13.5714 0.561467 13.7197 0.670863 13.8291C0.780259 13.9385 0.928632 14 1.08334 14H2.28093C2.66404 14.0011 3.04356 13.9261 3.39752 13.7795C3.75148 13.633 4.07284 13.4176 4.34301 13.146L13.8309 3.65806C14.2267 3.2615 14.449 2.72412 14.449 2.16385C14.449 1.60358 14.2267 1.06619 13.8309 0.66964ZM3.51818 12.3211C3.18918 12.648 2.74465 12.832 2.28093 12.8333H1.66668V12.2191C1.66609 11.9892 1.7111 11.7614 1.79911 11.5491C1.88713 11.3367 2.01639 11.1439 2.17943 10.9818L9.37951 3.78172L10.7212 5.12339L3.51818 12.3211ZM13.0055 2.83322L11.5437 4.29564L10.202 2.95689L11.6644 1.49447C11.7525 1.40657 11.8571 1.33688 11.9721 1.28938C12.0871 1.24188 12.2104 1.2175 12.3348 1.21764C12.4593 1.21777 12.5825 1.24242 12.6974 1.29017C12.8123 1.33792 12.9167 1.40784 13.0046 1.49593C13.0925 1.58403 13.1622 1.68857 13.2097 1.8036C13.2572 1.91863 13.2816 2.04189 13.2815 2.16634C13.2813 2.29079 13.2567 2.41399 13.2089 2.52892C13.1612 2.64384 13.0913 2.74824 13.0032 2.83614L13.0055 2.83322Z" fill="white"/>
</g>
<defs>
<clipPath id="clip0_277_16222">
<rect width="14" height="14" fill="white" transform="translate(0.5)"/>
</clipPath>
</defs>
</svg>
