<svg width="18" height="19" viewBox="0 0 18 19" fill="none" xmlns="http://www.w3.org/2000/svg">
<g clip-path="url(#clip0_325_7711)">
<path d="M14.25 15.5H3.75C2.7558 15.4988 1.80267 15.1033 1.09966 14.4003C0.396661 13.6973 0.00119089 12.7442 0 11.75L0 7.25C0.00119089 6.2558 0.396661 5.30267 1.09966 4.59966C1.80267 3.89666 2.7558 3.50119 3.75 3.5H14.25C15.2442 3.50119 16.1973 3.89666 16.9003 4.59966C17.6033 5.30267 17.9988 6.2558 18 7.25V11.75C17.9988 12.7442 17.6033 13.6973 16.9003 14.4003C16.1973 15.1033 15.2442 15.4988 14.25 15.5ZM3.75 5C3.15326 5 2.58097 5.23705 2.15901 5.65901C1.73705 6.08097 1.5 6.65326 1.5 7.25V11.75C1.5 12.3467 1.73705 12.919 2.15901 13.341C2.58097 13.7629 3.15326 14 3.75 14H14.25C14.8467 14 15.419 13.7629 15.841 13.341C16.2629 12.919 16.5 12.3467 16.5 11.75V7.25C16.5 6.65326 16.2629 6.08097 15.841 5.65901C15.419 5.23705 14.8467 5 14.25 5H3.75ZM9 12.5C8.40666 12.5 7.82664 12.3241 7.33329 11.9944C6.83994 11.6648 6.45542 11.1962 6.22836 10.6481C6.0013 10.0999 5.94189 9.49667 6.05764 8.91473C6.1734 8.33279 6.45912 7.79824 6.87868 7.37868C7.29824 6.95912 7.83279 6.6734 8.41473 6.55764C8.99667 6.44189 9.59987 6.5013 10.1481 6.72836C10.6962 6.95542 11.1648 7.33994 11.4944 7.83329C11.8241 8.32664 12 8.90666 12 9.5C12 10.2956 11.6839 11.0587 11.1213 11.6213C10.5587 12.1839 9.79565 12.5 9 12.5ZM9 8C8.70333 8 8.41332 8.08797 8.16665 8.2528C7.91997 8.41762 7.72771 8.65189 7.61418 8.92597C7.50065 9.20006 7.47094 9.50166 7.52882 9.79264C7.5867 10.0836 7.72956 10.3509 7.93934 10.5607C8.14912 10.7704 8.41639 10.9133 8.70737 10.9712C8.99834 11.0291 9.29994 10.9994 9.57403 10.8858C9.84811 10.7723 10.0824 10.58 10.2472 10.3334C10.412 10.0867 10.5 9.79667 10.5 9.5C10.5 9.10218 10.342 8.72064 10.0607 8.43934C9.77936 8.15804 9.39782 8 9 8ZM3.75 6.5C3.60166 6.5 3.45666 6.54399 3.33332 6.6264C3.20999 6.70881 3.11386 6.82594 3.05709 6.96299C3.00032 7.10003 2.98547 7.25083 3.01441 7.39632C3.04335 7.5418 3.11478 7.67544 3.21967 7.78033C3.32456 7.88522 3.4582 7.95665 3.60368 7.98559C3.74917 8.01453 3.89997 7.99968 4.03701 7.94291C4.17406 7.88614 4.29119 7.79001 4.3736 7.66668C4.45601 7.54334 4.5 7.39834 4.5 7.25C4.5 7.05109 4.42098 6.86032 4.28033 6.71967C4.13968 6.57902 3.94891 6.5 3.75 6.5ZM13.5 7.25C13.5 7.39834 13.544 7.54334 13.6264 7.66668C13.7088 7.79001 13.8259 7.88614 13.963 7.94291C14.1 7.99968 14.2508 8.01453 14.3963 7.98559C14.5418 7.95665 14.6754 7.88522 14.7803 7.78033C14.8852 7.67544 14.9566 7.5418 14.9856 7.39632C15.0145 7.25083 14.9997 7.10003 14.9429 6.96299C14.8861 6.82594 14.79 6.70881 14.6667 6.6264C14.5433 6.54399 14.3983 6.5 14.25 6.5C14.0511 6.5 13.8603 6.57902 13.7197 6.71967C13.579 6.86032 13.5 7.05109 13.5 7.25ZM3.75 11C3.60166 11 3.45666 11.044 3.33332 11.1264C3.20999 11.2088 3.11386 11.3259 3.05709 11.463C3.00032 11.6 2.98547 11.7508 3.01441 11.8963C3.04335 12.0418 3.11478 12.1754 3.21967 12.2803C3.32456 12.3852 3.4582 12.4566 3.60368 12.4856C3.74917 12.5145 3.89997 12.4997 4.03701 12.4429C4.17406 12.3861 4.29119 12.29 4.3736 12.1667C4.45601 12.0433 4.5 11.8983 4.5 11.75C4.5 11.5511 4.42098 11.3603 4.28033 11.2197C4.13968 11.079 3.94891 11 3.75 11ZM13.5 11.75C13.5 11.8983 13.544 12.0433 13.6264 12.1667C13.7088 12.29 13.8259 12.3861 13.963 12.4429C14.1 12.4997 14.2508 12.5145 14.3963 12.4856C14.5418 12.4566 14.6754 12.3852 14.7803 12.2803C14.8852 12.1754 14.9566 12.0418 14.9856 11.8963C15.0145 11.7508 14.9997 11.6 14.9429 11.463C14.8861 11.3259 14.79 11.2088 14.6667 11.1264C14.5433 11.044 14.3983 11 14.25 11C14.0511 11 13.8603 11.079 13.7197 11.2197C13.579 11.3603 13.5 11.5511 13.5 11.75Z" fill="white"/>
</g>
<defs>
<clipPath id="clip0_325_7711">
<rect width="18" height="18" fill="white" transform="translate(0 0.5)"/>
</clipPath>
</defs>
</svg>
