<svg width="24" height="24" viewBox="0 0 24 24" fill="none" xmlns="http://www.w3.org/2000/svg">
<path d="M8.20998 5.29C8.11625 5.38297 8.04186 5.49356 7.99109 5.61542C7.94032 5.73728 7.91418 5.86799 7.91418 6C7.91418 6.13201 7.94032 6.26272 7.99109 6.38458C8.04186 6.50644 8.11625 6.61704 8.20998 6.71L12.79 11.29C12.8837 11.383 12.9581 11.4936 13.0089 11.6154C13.0596 11.7373 13.0858 11.868 13.0858 12C13.0858 12.132 13.0596 12.2627 13.0089 12.3846C12.9581 12.5064 12.8837 12.617 12.79 12.71L8.20998 17.29C8.11625 17.383 8.04186 17.4936 7.99109 17.6154C7.94032 17.7373 7.91418 17.868 7.91418 18C7.91418 18.132 7.94032 18.2627 7.99109 18.3846C8.04186 18.5064 8.11625 18.617 8.20998 18.71C8.39735 18.8963 8.6508 19.0008 8.91498 19.0008C9.17917 19.0008 9.43262 18.8963 9.61998 18.71L14.21 14.12C14.7718 13.5575 15.0873 12.795 15.0873 12C15.0873 11.205 14.7718 10.4425 14.21 9.88L9.61998 5.29C9.43262 5.10375 9.17917 4.99921 8.91498 4.99921C8.6508 4.99921 8.39735 5.10375 8.20998 5.29Z" fill="white"/>
</svg>
