<svg width="18" height="19" viewBox="0 0 18 19" fill="none" xmlns="http://www.w3.org/2000/svg">
<g clip-path="url(#clip0_271_15791)">
<path d="M8.607 11.75C8.40809 11.75 8.21732 11.829 8.07667 11.9697C7.93602 12.1104 7.857 12.3011 7.857 12.5V14.75C7.857 15.3468 7.61995 15.9191 7.19799 16.341C6.77603 16.763 6.20374 17 5.607 17H3.75C3.15326 17 2.58097 16.763 2.15901 16.341C1.73705 15.9191 1.5 15.3468 1.5 14.75V4.25003C1.5 3.65329 1.73705 3.081 2.15901 2.65904C2.58097 2.23708 3.15326 2.00003 3.75 2.00003H5.607C6.20374 2.00003 6.77603 2.23708 7.19799 2.65904C7.61995 3.081 7.857 3.65329 7.857 4.25003V6.50003C7.857 6.69894 7.93602 6.88971 8.07667 7.03036C8.21732 7.17101 8.40809 7.25003 8.607 7.25003C8.80591 7.25003 8.99668 7.17101 9.13733 7.03036C9.27798 6.88971 9.357 6.69894 9.357 6.50003V4.25003C9.35581 3.25583 8.96034 2.3027 8.25734 1.5997C7.55433 0.896692 6.6012 0.501221 5.607 0.500031H3.75C2.7558 0.501221 1.80267 0.896692 1.09967 1.5997C0.396662 2.3027 0.00119089 3.25583 0 4.25003L0 14.75C0.00119089 15.7442 0.396662 16.6974 1.09967 17.4004C1.80267 18.1034 2.7558 18.4988 3.75 18.5H5.607C6.6012 18.4988 7.55433 18.1034 8.25734 17.4004C8.96034 16.6974 9.35581 15.7442 9.357 14.75V12.5C9.357 12.3011 9.27798 12.1104 9.13733 11.9697C8.99668 11.829 8.80591 11.75 8.607 11.75Z" fill="#CF1742"/>
<path d="M17.1515 7.90912L13.712 4.46962C13.6428 4.39799 13.56 4.34085 13.4685 4.30154C13.377 4.26224 13.2786 4.24155 13.179 4.24068C13.0794 4.23982 12.9807 4.25879 12.8885 4.2965C12.7963 4.33421 12.7126 4.3899 12.6422 4.46032C12.5718 4.53074 12.5161 4.61448 12.4784 4.70665C12.4406 4.79883 12.4217 4.89759 12.4225 4.99717C12.4234 5.09676 12.4441 5.19517 12.4834 5.28667C12.5227 5.37818 12.5798 5.46093 12.6515 5.53012L15.8487 8.72737L4.50122 8.74987C4.30231 8.74987 4.11154 8.82889 3.97089 8.96954C3.83024 9.11019 3.75122 9.30096 3.75122 9.49987C3.75122 9.69878 3.83024 9.88955 3.97089 10.0302C4.11154 10.1709 4.30231 10.2499 4.50122 10.2499L15.8922 10.2274L12.65 13.4696C12.5783 13.5388 12.5212 13.6216 12.4819 13.7131C12.4426 13.8046 12.4219 13.903 12.421 14.0026C12.4202 14.1022 12.4391 14.2009 12.4769 14.2931C12.5146 14.3853 12.5703 14.469 12.6407 14.5394C12.7111 14.6098 12.7948 14.6655 12.887 14.7032C12.9792 14.7409 13.0779 14.7599 13.1775 14.7591C13.2771 14.7582 13.3755 14.7375 13.467 14.6982C13.5585 14.6589 13.6413 14.6018 13.7105 14.5301L17.15 11.0906C17.572 10.6689 17.8092 10.0968 17.8095 9.50018C17.8098 8.90356 17.5731 8.33126 17.1515 7.90912Z" fill="#CF1742"/>
</g>
<defs>
<clipPath id="clip0_271_15791">
<rect width="18" height="18" fill="white" transform="translate(0 0.500031)"/>
</clipPath>
</defs>
</svg>
