<svg width="18" height="19" viewBox="0 0 18 19" fill="none" xmlns="http://www.w3.org/2000/svg">
<g clip-path="url(#clip0_271_3074)">
<path d="M9.1875 8.18751V9.29002H10.0312C10.29 9.29002 10.5 9.50002 10.5 9.75877C10.5 10.0175 10.29 10.2275 10.0312 10.2275H9.1875V11.2813C9.1875 11.54 8.9775 11.75 8.71875 11.75C8.46 11.75 8.25 11.54 8.25 11.2813V7.71876C8.25 7.46001 8.46 7.25001 8.71875 7.25001H10.0312C10.29 7.25001 10.5 7.46001 10.5 7.71876C10.5 7.97751 10.29 8.18751 10.0312 8.18751H9.1875ZM6.6705 7.25001C6.41925 7.25001 6.216 7.45326 6.216 7.70451V9.68752L5.28075 7.60701C5.18325 7.39026 4.96725 7.25001 4.7295 7.25001C4.39575 7.25001 4.125 7.52076 4.125 7.85451V11.2888C4.125 11.5438 4.332 11.75 4.58625 11.75C4.84125 11.75 5.0475 11.543 5.0475 11.2888V9.31252L5.97 11.3915C6.06675 11.6098 6.28275 11.75 6.52125 11.75C6.85425 11.75 7.12425 11.48 7.12425 11.147V7.70451C7.12425 7.45326 6.921 7.25001 6.66975 7.25001H6.6705ZM13.5938 7.25001H11.7188C11.46 7.25001 11.25 7.46001 11.25 7.71876C11.25 7.97751 11.46 8.18751 11.7188 8.18751H12.1875V11.2813C12.1875 11.54 12.3975 11.75 12.6562 11.75C12.915 11.75 13.125 11.54 13.125 11.2813V8.18751H13.5938C13.8525 8.18751 14.0625 7.97751 14.0625 7.71876C14.0625 7.46001 13.8525 7.25001 13.5938 7.25001ZM17.25 6.47676V12.626C17.25 13.7225 16.6523 14.7313 15.69 15.2585L10.4355 18.1318C9.537 18.623 8.46375 18.6245 7.5645 18.1363L2.3175 15.2855C1.35075 14.7598 0.75 13.7495 0.75 12.6493V6.50001C0.75 5.40651 1.34475 4.39926 2.3025 3.87201L7.55625 0.979264C8.4585 0.482014 9.5385 0.479764 10.4438 0.975514L15.6893 3.84501C16.6523 4.37151 17.25 5.37951 17.25 6.47676ZM15.75 6.47676C15.75 5.92851 15.4515 5.42376 14.97 5.16126L9.72375 2.29176C9.27075 2.04351 8.73075 2.04501 8.28 2.29326L3.02625 5.18601C2.547 5.45001 2.25 5.95326 2.25 6.50001V12.6493C2.25 13.1998 2.55 13.7045 3.03375 13.9678L8.28 16.8178C8.72925 17.0615 9.2655 17.0615 9.71625 16.8155L14.97 13.9423C15.4515 13.679 15.75 13.175 15.75 12.626V6.47676Z" fill="white"/>
</g>
<defs>
<clipPath id="clip0_271_3074">
<rect width="18" height="18" fill="white" transform="translate(0 0.5)"/>
</clipPath>
</defs>
</svg>
