<svg width="22" height="22" viewBox="0 0 22 22" fill="none" xmlns="http://www.w3.org/2000/svg">
<path d="M17.4167 8.89544V8.25001C17.4167 4.70618 14.5438 1.83334 11 1.83334C7.45619 1.83334 4.58335 4.70618 4.58335 8.25001V8.89544C4.58335 9.67001 4.35408 10.4273 3.92442 11.0717L2.87153 12.6511C1.90983 14.0936 2.64401 16.0544 4.31666 16.5106C8.69233 17.704 13.3077 17.704 17.6834 16.5106C19.356 16.0544 20.0902 14.0936 19.1285 12.6511L18.0756 11.0717C17.646 10.4273 17.4167 9.67001 17.4167 8.89544Z" stroke="white" stroke-width="1.5"/>
<path d="M6.875 17.4167C7.47544 19.0188 9.09558 20.1667 11 20.1667C12.9044 20.1667 14.5246 19.0188 15.125 17.4167" stroke="white" stroke-width="1.5" stroke-linecap="round"/>
</svg>
