<svg width="24" height="24" viewBox="0 0 24 24" fill="none" xmlns="http://www.w3.org/2000/svg">
<circle cx="12" cy="12" r="12" fill="#CF1742"/>
<path d="M16.4999 7.49986C16.3592 7.35926 16.1685 7.28027 15.9696 7.28027C15.7707 7.28027 15.58 7.35926 15.4394 7.49986L11.9999 10.9394L8.56036 7.49986C8.41972 7.35926 8.22899 7.28027 8.03011 7.28027C7.83124 7.28027 7.64051 7.35926 7.49986 7.49986C7.35926 7.64051 7.28027 7.83124 7.28027 8.03011C7.28027 8.22899 7.35926 8.41972 7.49986 8.56036L10.9394 11.9999L7.49986 15.4394C7.35926 15.58 7.28027 15.7707 7.28027 15.9696C7.28027 16.1685 7.35926 16.3592 7.49986 16.4999C7.64051 16.6405 7.83124 16.7195 8.03011 16.7195C8.22899 16.7195 8.41972 16.6405 8.56036 16.4999L11.9999 13.0604L15.4394 16.4999C15.58 16.6405 15.7707 16.7195 15.9696 16.7195C16.1685 16.7195 16.3592 16.6405 16.4999 16.4999C16.6405 16.3592 16.7195 16.1685 16.7195 15.9696C16.7195 15.7707 16.6405 15.58 16.4999 15.4394L13.0604 11.9999L16.4999 8.56036C16.6405 8.41972 16.7195 8.22899 16.7195 8.03011C16.7195 7.83124 16.6405 7.64051 16.4999 7.49986Z" fill="white"/>
</svg>
