<svg width="18" height="19" viewBox="0 0 18 19" fill="none" xmlns="http://www.w3.org/2000/svg">
<g clip-path="url(#clip0_271_3343)">
<path d="M15 13.25V3.5C15 1.84325 13.6567 0.5 12 0.5H2.625C1.17525 0.5 0 1.67525 0 3.125V5.75H3.75V15.875C3.75 17.3248 4.92525 18.5 6.375 18.5H15.375C16.8248 18.5 18 17.3248 18 15.875V13.25H15ZM3.75 4.25H1.5V3.125C1.5 2.50475 2.00475 2 2.625 2C3.24525 2 3.75 2.50475 3.75 3.125V4.25ZM7.5 15.875C7.5 16.4952 6.99525 17 6.375 17C5.75475 17 5.25 16.4952 5.25 15.875V11.75H9V10.25H5.25V5.75H8.25V4.25H5.25V3.125C5.25 2.723 5.1585 2.34125 4.9965 2H12C12.8287 2 13.5 2.67125 13.5 3.5V7.25H10.5V8.75H13.5V13.25H7.5V15.875ZM16.5 15.875C16.5 16.4952 15.9952 17 15.375 17H8.7465C8.9085 16.6588 9 16.2778 9 15.875V14.75H16.5V15.875Z" fill="white"/>
</g>
<defs>
<clipPath id="clip0_271_3343">
<rect width="18" height="18" fill="white" transform="translate(0 0.5)"/>
</clipPath>
</defs>
</svg>
