<svg width="17" height="19" viewBox="0 0 17 19" fill="none" xmlns="http://www.w3.org/2000/svg">
<path d="M15.068 10.925L14.735 10.733C14.8849 9.91735 14.8849 9.08118 14.735 8.26552L15.068 8.07351C15.3241 7.92578 15.5486 7.72905 15.7286 7.49456C15.9087 7.26007 16.0408 6.99242 16.1174 6.70688C16.194 6.42134 16.2136 6.12351 16.1751 5.83038C16.1366 5.53726 16.0407 5.25459 15.893 4.99852C15.7453 4.74244 15.5485 4.51797 15.3141 4.33792C15.0796 4.15787 14.8119 4.02577 14.5264 3.94916C14.2408 3.87255 13.943 3.85294 13.6499 3.89143C13.3568 3.92993 13.0741 4.02578 12.818 4.17352L12.4843 4.36627C11.8539 3.8277 11.1295 3.4102 10.3475 3.13477V2.75002C10.3475 2.15328 10.1105 1.58098 9.6885 1.15902C9.26654 0.737068 8.69424 0.500015 8.09751 0.500015C7.50077 0.500015 6.92847 0.737068 6.50651 1.15902C6.08456 1.58098 5.84751 2.15328 5.84751 2.75002V3.13477C5.06555 3.41119 4.34139 3.82972 3.71151 4.36927L3.37626 4.17502C2.85908 3.87665 2.24457 3.79594 1.66789 3.95066C1.09122 4.10538 0.599624 4.48284 0.301255 5.00002C0.00288682 5.51719 -0.0778155 6.1317 0.076902 6.70838C0.23162 7.28505 0.609083 7.77665 1.12626 8.07502L1.45926 8.26702C1.30934 9.08268 1.30934 9.91885 1.45926 10.7345L1.12626 10.9265C0.609083 11.2249 0.23162 11.7165 0.076902 12.2932C-0.0778155 12.8698 0.00288682 13.4843 0.301255 14.0015C0.599624 14.5187 1.09122 14.8962 1.66789 15.0509C2.24457 15.2056 2.85908 15.1249 3.37626 14.8265L3.71001 14.6338C4.34058 15.1724 5.06524 15.5899 5.84751 15.8653V16.25C5.84751 16.8468 6.08456 17.419 6.50651 17.841C6.92847 18.263 7.50077 18.5 8.09751 18.5C8.69424 18.5 9.26654 18.263 9.6885 17.841C10.1105 17.419 10.3475 16.8468 10.3475 16.25V15.8653C11.1295 15.5888 11.8536 15.1703 12.4835 14.6308L12.8188 14.8243C13.3359 15.1226 13.9504 15.2033 14.5271 15.0486C15.1038 14.8939 15.5954 14.5164 15.8938 13.9993C16.1921 13.4821 16.2728 12.8676 16.1181 12.2909C15.9634 11.7142 15.5859 11.2226 15.0688 10.9243L15.068 10.925ZM13.157 8.09301C13.411 9.01331 13.411 9.98522 13.157 10.9055C13.1127 11.0657 13.1228 11.2361 13.1858 11.3899C13.2487 11.5437 13.361 11.6722 13.505 11.7553L14.318 12.2248C14.4904 12.3242 14.6162 12.4881 14.6677 12.6803C14.7193 12.8725 14.6923 13.0773 14.5929 13.2496C14.4934 13.422 14.3296 13.5478 14.1374 13.5993C13.9452 13.6509 13.7404 13.624 13.568 13.5245L12.7535 13.0535C12.6094 12.9701 12.4417 12.9369 12.2767 12.9593C12.1117 12.9817 11.9589 13.0584 11.8423 13.1773C11.1747 13.8588 10.3337 14.345 9.41001 14.5835C9.24878 14.625 9.10593 14.7189 9.00395 14.8505C8.90198 14.982 8.84667 15.1438 8.84676 15.3103V16.25C8.84676 16.4489 8.76774 16.6397 8.62709 16.7803C8.48643 16.921 8.29567 17 8.09676 17C7.89784 17 7.70708 16.921 7.56643 16.7803C7.42577 16.6397 7.34676 16.4489 7.34676 16.25V15.311C7.34684 15.1445 7.29153 14.9828 7.18956 14.8512C7.08758 14.7196 6.94473 14.6257 6.78351 14.5843C5.85977 14.3448 5.019 13.8575 4.35201 13.175C4.2354 13.0562 4.08256 12.9795 3.91757 12.9571C3.75259 12.9347 3.58483 12.9678 3.44076 13.0513L2.62776 13.5215C2.54243 13.5715 2.44805 13.6042 2.35005 13.6176C2.25205 13.631 2.15237 13.6249 2.05675 13.5996C1.96112 13.5743 1.87144 13.5304 1.79287 13.4703C1.7143 13.4102 1.64839 13.3352 1.59893 13.2495C1.54948 13.1639 1.51745 13.0693 1.5047 12.9712C1.49195 12.8731 1.49873 12.7735 1.52465 12.678C1.55056 12.5825 1.5951 12.4932 1.6557 12.415C1.71631 12.3368 1.79177 12.2714 1.87776 12.2225L2.69076 11.753C2.83472 11.67 2.94701 11.5414 3.01 11.3876C3.07299 11.2338 3.0831 11.0634 3.03876 10.9033C2.78477 9.98297 2.78477 9.01106 3.03876 8.09077C3.0823 7.93093 3.07171 7.76117 3.00862 7.60798C2.94553 7.4548 2.83349 7.32682 2.69001 7.24401L1.87701 6.77452C1.70465 6.67506 1.57886 6.51121 1.52731 6.31901C1.47576 6.1268 1.50267 5.922 1.60213 5.74964C1.70159 5.57728 1.86544 5.45149 2.05764 5.39994C2.24984 5.34839 2.45465 5.37531 2.62701 5.47477L3.44151 5.94577C3.58519 6.0294 3.75259 6.06292 3.9174 6.04107C4.08221 6.01921 4.23509 5.94321 4.35201 5.82502C5.01957 5.14352 5.86057 4.65728 6.78426 4.41877C6.94598 4.37719 7.0892 4.28283 7.19123 4.15064C7.29326 4.01845 7.34826 3.856 7.34751 3.68902V2.75002C7.34751 2.5511 7.42652 2.36034 7.56718 2.21969C7.70783 2.07903 7.89859 2.00002 8.09751 2.00002C8.29642 2.00002 8.48718 2.07903 8.62784 2.21969C8.76849 2.36034 8.84751 2.5511 8.84751 2.75002V3.68902C8.84742 3.85548 8.90273 4.01725 9.0047 4.14883C9.10668 4.2804 9.24953 4.37431 9.41076 4.41577C10.3348 4.65513 11.1758 5.14243 11.843 5.82502C11.9596 5.94387 12.1125 6.02053 12.2774 6.04294C12.4424 6.06535 12.6102 6.03221 12.7543 5.94877L13.5673 5.47852C13.6526 5.42849 13.747 5.39584 13.845 5.38244C13.943 5.36904 14.0426 5.37516 14.1383 5.40044C14.2339 5.42572 14.3236 5.46967 14.4021 5.52975C14.4807 5.58983 14.5466 5.66486 14.5961 5.75052C14.6455 5.83618 14.6776 5.93077 14.6903 6.02886C14.7031 6.12694 14.6963 6.22658 14.6704 6.32203C14.6444 6.41749 14.5999 6.50687 14.5393 6.58505C14.4787 6.66322 14.4032 6.72863 14.3173 6.77752L13.5043 7.24702C13.361 7.33004 13.2493 7.45812 13.1865 7.61129C13.1237 7.76445 13.1133 7.93409 13.157 8.09377V8.09301Z" fill="white"/>
</svg>
