<svg width="18" height="19" viewBox="0 0 18 19" fill="none" xmlns="http://www.w3.org/2000/svg">
<g clip-path="url(#clip0_271_15781)">
<path d="M9.09766 6.50002C8.50431 6.50002 7.9243 6.67596 7.43095 7.00561C6.9376 7.33525 6.55308 7.80379 6.32602 8.35196C6.09896 8.90014 6.03955 9.50334 6.1553 10.0853C6.27106 10.6672 6.55678 11.2018 6.97634 11.6213C7.3959 12.0409 7.93044 12.3266 8.51239 12.4424C9.09433 12.5581 9.69753 12.4987 10.2457 12.2717C10.7939 12.0446 11.2624 11.6601 11.5921 11.1667C11.9217 10.6734 12.0977 10.0934 12.0977 9.50002C12.0977 8.70437 11.7816 7.9413 11.219 7.37869C10.6564 6.81609 9.89331 6.50002 9.09766 6.50002ZM9.09766 11C8.80099 11 8.51098 10.912 8.2643 10.7472C8.01763 10.5824 7.82537 10.3481 7.71184 10.074C7.59831 9.79995 7.5686 9.49835 7.62648 9.20738C7.68436 8.91641 7.82722 8.64913 8.037 8.43936C8.24678 8.22958 8.51405 8.08672 8.80502 8.02884C9.09599 7.97096 9.39759 8.00066 9.67168 8.1142C9.94577 8.22773 10.18 8.41999 10.3449 8.66666C10.5097 8.91333 10.5977 9.20334 10.5977 9.50002C10.5977 9.89784 10.4396 10.2794 10.1583 10.5607C9.87701 10.842 9.49548 11 9.09766 11Z" fill="white"/>
<path d="M16.068 10.925L15.735 10.733C15.8849 9.91735 15.8849 9.08118 15.735 8.26552L16.068 8.07351C16.3241 7.92578 16.5486 7.72905 16.7286 7.49456C16.9087 7.26007 17.0408 6.99242 17.1174 6.70688C17.194 6.42134 17.2136 6.12351 17.1751 5.83038C17.1366 5.53726 17.0407 5.25459 16.893 4.99852C16.7453 4.74244 16.5485 4.51797 16.3141 4.33792C16.0796 4.15787 15.8119 4.02577 15.5264 3.94916C15.2408 3.87255 14.943 3.85294 14.6499 3.89143C14.3568 3.92993 14.0741 4.02578 13.818 4.17352L13.4843 4.36627C12.8539 3.8277 12.1295 3.4102 11.3475 3.13477V2.75002C11.3475 2.15328 11.1105 1.58098 10.6885 1.15902C10.2665 0.737068 9.69424 0.500015 9.09751 0.500015C8.50077 0.500015 7.92847 0.737068 7.50651 1.15902C7.08456 1.58098 6.84751 2.15328 6.84751 2.75002V3.13477C6.06555 3.41119 5.34139 3.82972 4.71151 4.36927L4.37626 4.17502C3.85908 3.87665 3.24457 3.79594 2.66789 3.95066C2.09122 4.10538 1.59962 4.48284 1.30126 5.00002C1.00289 5.51719 0.922184 6.1317 1.0769 6.70838C1.23162 7.28505 1.60908 7.77665 2.12626 8.07502L2.45926 8.26702C2.30934 9.08268 2.30934 9.91885 2.45926 10.7345L2.12626 10.9265C1.60908 11.2249 1.23162 11.7165 1.0769 12.2932C0.922184 12.8698 1.00289 13.4843 1.30126 14.0015C1.59962 14.5187 2.09122 14.8962 2.66789 15.0509C3.24457 15.2056 3.85908 15.1249 4.37626 14.8265L4.71001 14.6338C5.34058 15.1724 6.06524 15.5899 6.84751 15.8653V16.25C6.84751 16.8468 7.08456 17.419 7.50651 17.841C7.92847 18.263 8.50077 18.5 9.09751 18.5C9.69424 18.5 10.2665 18.263 10.6885 17.841C11.1105 17.419 11.3475 16.8468 11.3475 16.25V15.8653C12.1295 15.5888 12.8536 15.1703 13.4835 14.6308L13.8188 14.8243C14.3359 15.1226 14.9504 15.2033 15.5271 15.0486C16.1038 14.8939 16.5954 14.5164 16.8938 13.9993C17.1921 13.4821 17.2728 12.8676 17.1181 12.2909C16.9634 11.7142 16.5859 11.2226 16.0688 10.9243L16.068 10.925ZM14.157 8.09301C14.411 9.01331 14.411 9.98522 14.157 10.9055C14.1127 11.0657 14.1228 11.2361 14.1858 11.3899C14.2487 11.5437 14.361 11.6722 14.505 11.7553L15.318 12.2248C15.4904 12.3242 15.6162 12.4881 15.6677 12.6803C15.7193 12.8725 15.6923 13.0773 15.5929 13.2496C15.4934 13.422 15.3296 13.5478 15.1374 13.5993C14.9452 13.6509 14.7404 13.624 14.568 13.5245L13.7535 13.0535C13.6094 12.9701 13.4417 12.9369 13.2767 12.9593C13.1117 12.9817 12.9589 13.0584 12.8423 13.1773C12.1747 13.8588 11.3337 14.345 10.41 14.5835C10.2488 14.625 10.1059 14.7189 10.004 14.8505C9.90198 14.982 9.84667 15.1438 9.84676 15.3103V16.25C9.84676 16.4489 9.76774 16.6397 9.62709 16.7803C9.48643 16.921 9.29567 17 9.09676 17C8.89784 17 8.70708 16.921 8.56643 16.7803C8.42577 16.6397 8.34676 16.4489 8.34676 16.25V15.311C8.34684 15.1445 8.29153 14.9828 8.18956 14.8512C8.08758 14.7196 7.94473 14.6257 7.78351 14.5843C6.85977 14.3448 6.019 13.8575 5.35201 13.175C5.2354 13.0562 5.08256 12.9795 4.91757 12.9571C4.75259 12.9347 4.58483 12.9678 4.44076 13.0513L3.62776 13.5215C3.54243 13.5715 3.44805 13.6042 3.35005 13.6176C3.25205 13.631 3.15237 13.6249 3.05675 13.5996C2.96112 13.5743 2.87144 13.5304 2.79287 13.4703C2.7143 13.4102 2.64839 13.3352 2.59893 13.2495C2.54948 13.1639 2.51745 13.0693 2.5047 12.9712C2.49195 12.8731 2.49873 12.7735 2.52465 12.678C2.55056 12.5825 2.5951 12.4932 2.6557 12.415C2.71631 12.3368 2.79177 12.2714 2.87776 12.2225L3.69076 11.753C3.83472 11.67 3.94701 11.5414 4.01 11.3876C4.07299 11.2338 4.0831 11.0634 4.03876 10.9033C3.78477 9.98297 3.78477 9.01106 4.03876 8.09077C4.0823 7.93093 4.07171 7.76117 4.00862 7.60798C3.94553 7.4548 3.83349 7.32682 3.69001 7.24401L2.87701 6.77452C2.70465 6.67506 2.57886 6.51121 2.52731 6.31901C2.47576 6.1268 2.50267 5.922 2.60213 5.74964C2.70159 5.57728 2.86544 5.45149 3.05764 5.39994C3.24984 5.34839 3.45465 5.37531 3.62701 5.47477L4.44151 5.94577C4.58519 6.0294 4.75259 6.06292 4.9174 6.04107C5.08221 6.01921 5.23509 5.94321 5.35201 5.82502C6.01957 5.14352 6.86057 4.65728 7.78426 4.41877C7.94598 4.37719 8.0892 4.28283 8.19123 4.15064C8.29326 4.01845 8.34826 3.856 8.34751 3.68902V2.75002C8.34751 2.5511 8.42652 2.36034 8.56718 2.21969C8.70783 2.07903 8.89859 2.00002 9.09751 2.00002C9.29642 2.00002 9.48718 2.07903 9.62784 2.21969C9.76849 2.36034 9.84751 2.5511 9.84751 2.75002V3.68902C9.84742 3.85548 9.90273 4.01725 10.0047 4.14883C10.1067 4.2804 10.2495 4.37431 10.4108 4.41577C11.3348 4.65513 12.1758 5.14243 12.843 5.82502C12.9596 5.94387 13.1125 6.02053 13.2774 6.04294C13.4424 6.06535 13.6102 6.03221 13.7543 5.94877L14.5673 5.47852C14.6526 5.42849 14.747 5.39584 14.845 5.38244C14.943 5.36904 15.0426 5.37516 15.1383 5.40044C15.2339 5.42572 15.3236 5.46967 15.4021 5.52975C15.4807 5.58983 15.5466 5.66486 15.5961 5.75052C15.6455 5.83618 15.6776 5.93077 15.6903 6.02886C15.7031 6.12694 15.6963 6.22658 15.6704 6.32203C15.6444 6.41749 15.5999 6.50687 15.5393 6.58505C15.4787 6.66322 15.4032 6.72863 15.3173 6.77752L14.5043 7.24702C14.361 7.33004 14.2493 7.45812 14.1865 7.61129C14.1237 7.76445 14.1133 7.93409 14.157 8.09377V8.09301Z" fill="white"/>
</g>
<defs>
<clipPath id="clip0_271_15781">
<rect width="18" height="18" fill="white" transform="translate(0 0.500015)"/>
</clipPath>
</defs>
</svg>
