<svg width="18" height="19" viewBox="0 0 18 19" fill="none" xmlns="http://www.w3.org/2000/svg">
<path d="M9 12.5C8.40666 12.5 7.82664 12.3241 7.33329 11.9944C6.83994 11.6648 6.45542 11.1962 6.22836 10.6481C6.0013 10.0999 5.94189 9.49667 6.05764 8.91473C6.1734 8.33279 6.45912 7.79824 6.87868 7.37868C7.29824 6.95912 7.83279 6.6734 8.41473 6.55765C8.99667 6.44189 9.59987 6.5013 10.1481 6.72836C10.6962 6.95543 11.1648 7.33994 11.4944 7.83329C11.8241 8.32664 12 8.90666 12 9.5C12 10.2957 11.6839 11.0587 11.1213 11.6213C10.5587 12.1839 9.79565 12.5 9 12.5ZM9 8C8.70333 8 8.41332 8.08798 8.16665 8.2528C7.91997 8.41762 7.72771 8.65189 7.61418 8.92598C7.50065 9.20007 7.47094 9.50167 7.52882 9.79264C7.5867 10.0836 7.72956 10.3509 7.93934 10.5607C8.14912 10.7704 8.41639 10.9133 8.70737 10.9712C8.99834 11.0291 9.29994 10.9994 9.57403 10.8858C9.84811 10.7723 10.0824 10.58 10.2472 10.3334C10.412 10.0867 10.5 9.79667 10.5 9.5C10.5 9.10218 10.342 8.72065 10.0607 8.43934C9.77936 8.15804 9.39782 8 9 8ZM13.5 17.75C13.5 16.5565 13.0259 15.4119 12.182 14.568C11.3381 13.7241 10.1935 13.25 9 13.25C7.80653 13.25 6.66193 13.7241 5.81802 14.568C4.97411 15.4119 4.5 16.5565 4.5 17.75C4.5 17.9489 4.57902 18.1397 4.71967 18.2803C4.86032 18.421 5.05109 18.5 5.25 18.5C5.44891 18.5 5.63968 18.421 5.78033 18.2803C5.92098 18.1397 6 17.9489 6 17.75C6 16.9544 6.31607 16.1913 6.87868 15.6287C7.44129 15.0661 8.20435 14.75 9 14.75C9.79565 14.75 10.5587 15.0661 11.1213 15.6287C11.6839 16.1913 12 16.9544 12 17.75C12 17.9489 12.079 18.1397 12.2197 18.2803C12.3603 18.421 12.5511 18.5 12.75 18.5C12.9489 18.5 13.1397 18.421 13.2803 18.2803C13.421 18.1397 13.5 17.9489 13.5 17.75ZM13.5 6.5C12.9067 6.5 12.3266 6.32405 11.8333 5.99441C11.3399 5.66477 10.9554 5.19623 10.7284 4.64805C10.5013 4.09987 10.4419 3.49667 10.5576 2.91473C10.6734 2.33279 10.9591 1.79824 11.3787 1.37868C11.7982 0.959123 12.3328 0.673401 12.9147 0.557646C13.4967 0.44189 14.0999 0.5013 14.6481 0.728363C15.1962 0.955426 15.6648 1.33994 15.9944 1.83329C16.3241 2.32664 16.5 2.90666 16.5 3.5C16.5 4.29565 16.1839 5.05871 15.6213 5.62132C15.0587 6.18393 14.2956 6.5 13.5 6.5ZM13.5 2C13.2033 2 12.9133 2.08797 12.6666 2.2528C12.42 2.41762 12.2277 2.65189 12.1142 2.92598C12.0006 3.20007 11.9709 3.50167 12.0288 3.79264C12.0867 4.08361 12.2296 4.35088 12.4393 4.56066C12.6491 4.77044 12.9164 4.9133 13.2074 4.97118C13.4983 5.02906 13.7999 4.99935 14.074 4.88582C14.3481 4.77229 14.5824 4.58003 14.7472 4.33336C14.912 4.08668 15 3.79667 15 3.5C15 3.10218 14.842 2.72065 14.5607 2.43934C14.2794 2.15804 13.8978 2 13.5 2ZM18 11.75C17.9988 10.5569 17.5243 9.41299 16.6807 8.56934C15.837 7.72568 14.6931 7.25119 13.5 7.25C13.3011 7.25 13.1103 7.32902 12.9697 7.46967C12.829 7.61032 12.75 7.80109 12.75 8C12.75 8.19891 12.829 8.38968 12.9697 8.53033C13.1103 8.67098 13.3011 8.75 13.5 8.75C14.2956 8.75 15.0587 9.06607 15.6213 9.62868C16.1839 10.1913 16.5 10.9544 16.5 11.75C16.5 11.9489 16.579 12.1397 16.7197 12.2803C16.8603 12.421 17.0511 12.5 17.25 12.5C17.4489 12.5 17.6397 12.421 17.7803 12.2803C17.921 12.1397 18 11.9489 18 11.75ZM4.5 6.5C3.90666 6.5 3.32664 6.32405 2.83329 5.99441C2.33994 5.66477 1.95542 5.19623 1.72836 4.64805C1.5013 4.09987 1.44189 3.49667 1.55764 2.91473C1.6734 2.33279 1.95912 1.79824 2.37868 1.37868C2.79824 0.959123 3.33279 0.673401 3.91473 0.557646C4.49667 0.44189 5.09987 0.5013 5.64805 0.728363C6.19623 0.955426 6.66476 1.33994 6.99441 1.83329C7.32405 2.32664 7.5 2.90666 7.5 3.5C7.5 4.29565 7.18393 5.05871 6.62132 5.62132C6.05871 6.18393 5.29565 6.5 4.5 6.5ZM4.5 2C4.20333 2 3.91332 2.08797 3.66664 2.2528C3.41997 2.41762 3.22771 2.65189 3.11418 2.92598C3.00065 3.20007 2.97094 3.50167 3.02882 3.79264C3.0867 4.08361 3.22956 4.35088 3.43934 4.56066C3.64912 4.77044 3.91639 4.9133 4.20736 4.97118C4.49834 5.02906 4.79994 4.99935 5.07403 4.88582C5.34811 4.77229 5.58238 4.58003 5.7472 4.33336C5.91203 4.08668 6 3.79667 6 3.5C6 3.10218 5.84196 2.72065 5.56066 2.43934C5.27936 2.15804 4.89782 2 4.5 2ZM1.5 11.75C1.5 10.9544 1.81607 10.1913 2.37868 9.62868C2.94129 9.06607 3.70435 8.75 4.5 8.75C4.69891 8.75 4.88968 8.67098 5.03033 8.53033C5.17098 8.38968 5.25 8.19891 5.25 8C5.25 7.80109 5.17098 7.61032 5.03033 7.46967C4.88968 7.32902 4.69891 7.25 4.5 7.25C3.30689 7.25119 2.16299 7.72568 1.31934 8.56934C0.47568 9.41299 0.00119132 10.5569 0 11.75C0 11.9489 0.0790176 12.1397 0.21967 12.2803C0.360322 12.421 0.551088 12.5 0.75 12.5C0.948912 12.5 1.13968 12.421 1.28033 12.2803C1.42098 12.1397 1.5 11.9489 1.5 11.75Z" fill="white"/>
</svg>
